# xmcd
#
# Track frame offsets: 
#        150
#        10787
#        25725
#        37425
#        50762
#        61075
#        73212
#        84825
#        97037
#        105987
#
# Disc length: 1572 seconds
#
# Revision: 0
# Processed by: cddbd v1.4PL0 Copyright (c) Steve Scherf et al.
# Submitted via: ExactAudioCopy v0.90b2
#
DISCID=7e06220a
DTITLE=Chuck Berry - Chuck Berry
DYEAR=1900
DGENRE=Blues
TTITLE0=Maybellene
TTITLE1=Reeling' and Rockin'
TTITLE2=Rock' N Roll Music
TTITLE3=Too Much Monkey Business
TTITLE4=Memphis Tennessee
TTITLE5=You Never can tell
TTITLE6=Nadine
TTITLE7=Johnny B. Goode
TTITLE8=Let It Rock
TTITLE9=Little Qeenie
EXTD=
EXTT0=
EXTT1=
EXTT2=
EXTT3=
EXTT4=
EXTT5=
EXTT6=
EXTT7=
EXTT8=
EXTT9=
PLAYORDER=
